<mxfile host="app.diagrams.net" modified="2021-08-25T13:25:18.264Z" agent="5.0 (X11)" etag="9da84VEiaKlGwgY5H5b5" version="14.9.9" type="github">
  <diagram id="1Bfr3mKwywaLFkRyUR4w" name="Page-1">
    <mxGraphModel dx="2920" dy="1226" grid="1" gridSize="10" guides="1" tooltips="1" connect="1" arrows="1" fold="1" page="1" pageScale="1" pageWidth="850" pageHeight="1100" math="0" shadow="0">
      <root>
        <mxCell id="0" />
        <mxCell id="1" parent="0" />
        <mxCell id="jr2tf26-BkU2WO63kZF1-1" value="" style="shape=image;verticalLabelPosition=bottom;labelBackgroundColor=#ffffff;verticalAlign=top;aspect=fixed;imageAspect=0;image=data:image/png,iVBORw0KGgoAAAANSUhEUgAABTkAAAIkCAYAAADVmC+rAAAABHNCSVQICAgIfAhkiAAAABl0RVh0U29mdHdhcmUAZ25vbWUtc2NyZWVuc2hvdO8Dvz4AACAASURBVHic7N15mBxXfe//zzlVvfdsmpG1S5YXLC+ycBwRjAVcAkkQCQlhuU4CXOOEkIQnT0IIS5JLLllZHghxbhYIyyX+mTgmgNkSzOKEYGwcY7AtGVuSbdlaLcnS7D29Vp3z+6N7ND0zPaORNKNRS+8XD8+j6qo6dapm2k/Pp7/nHLNx40YvAACAM620b/7bdKGODaZUbny6CdJlLc/HMifTRpTQkaGkasdf8ApTNXWmYyWtl7VeJkrq8HBCcWN/Jl/WkrQ7fp24ktLRQqjISzJOnV0ldYaSZFQuJhQnasom/PHjvQs0NJzWWNx4IahpWU9VicZmrZjRkaKtb9hIfT0VpZtvyoXqH0qp5OqbYbqspblYQeMYH4fqH06p7Or9TeVLWpo+wUfAKc8hnS+qb9o5RqXRjPorjQuZWN09ZeWtVBzNaaDSdKiNlc/W79sar9BKheGMhmrj5zrl8hV1p+rP0btAI6MpjTbtb36OheGshsY7l6poVUckM+1ZxerqrKgjHO+3UWUsrWMlK994zku7q0qZKefJK5mpaEk2VmgkeavSWEoDZaMgGakzW1M29NP7kaxoVWd0cr9vpyKzdqGvAAAA0HbsiQ8BAABoE97INW1a6087cDLJqpZ21JRNOIWBlzVSpRJqPI9UoqbupoBTkoJUVR2JRrDmrUrVifAsna0ql5jcL2NjdaTjiRecUe0kvoZ2taARYEoykTqbAk5JMkGk7sx4+0aVSqB4aiMnycVWxbGUBitNFwpjpVt+unTKd1TUnY6VDJxC66U4VDGaODeRmQg4pfoz6crXlDqeBDc/x5lYFSsTxyTS1aaAU5K8UtmqMuOHxKFK0fTzTKKmJblGwClJximTL+uC7pKWdVYbAScAAADOJuFidwAAAGDeGD/pG1znjOr1dqfKK5WKFUy+iKK4qcVaUoeOJWdtJYrH+2EUVUONlkNVIqPYG/mWeVnj9Tl2PI4blYmS5EMN9IcamO0EZxV7TQpCT6RcyOpAYZYDjFM+G7X+cBnEyiYm36iPTb3Stb6lVMJNv90gViqQKlF9M4qtvFocd7wZq6gp5a4VMzpQnKXP4z/LcPJ5YSJucR9eCT45AwAAnLX4qAYAAM4d1ilhpXKjTDGuhqr4ePLQ7pMUmPmr2qsWUzpaDHQ21AHOax+sUy5XVldihlatZ/gQAAAAFhQhJwAAOIc4ZVNOo+NzK7pQQ4VYS/NRy6pFHwcq1KRcOj6JEM4rDLw0PldkWNOyrqoSJwpSXajR0njA6ZXIVLQkEysx3tVyWs8UglkamFkQOBk1qjlNrO7usvKn1tTMTH2o/vFN4xUETslEpFxq4j5mPH3qduAVGqla77QqNSs/tZozDlRpGlcfBrNUcUqScQqtND4Wf+5zsk4+L6oFiuSmfFA2qkVSGJ7+FAgAAACYf4ScAADgnJJIV5WrTCziE1VSOhIHymciZUKnwEreWVWqoUZLoWrOayyqqi8XTczBeAKpVKSg3Fh4KAo1MOa0JBdNBJ3eqFJOqGxr6ko1qhvd5OHZ6SnBYOxmvrhtrib1RjUnpQNJXvJGsolYaRvWFx7ygYYLSQX5qjJNQWdUTWg0curKnkygOyGdK7VYeOg0BJGyYULVRlhcK6U0FExZeKiQUOX4mkFOmaSbsbm6ySF3XElqIKyoJ+0m7tlZjZVCKV1VLmh9nq8lNDDm1JttzG3qjUrFtAZKUxceqs/7ejzCja2qXkoZyXvJkIYCAACcMYScAADg3GJjdXdUFY0kVWlkYi4KNTIaaqTlCUZRJaHRZKye5NxCPJOoqSsVaqBiJBnVyikdqSQVBk5WRnFcn/NSJpAz5Xq7tl65WF9QyKpYTCiVjRXKqFoNNVKaOXoMEk6hAkVSPcQcyqgUSnHs1dldVs5G6sqGqhQCOdVDuv7BUEHoFRjJxUaRM5K8aqqo7xSDzvnllcvVVBxO1qs5vdXYaEbFMafAGMVu8nylYbqq/Bw+uSYyVeUraRXiepulQkalolMi8DLeKIqtnJdUMVJX5XjQOek8GVVLaR0qe4XWy7nGOaqHxSNBrEwYy8grGTqp0mgkTujYUKCElSJFuqCrxodtAACAM2TxP98CAADMMxPW1NdVUX6mOSKb2VgdHeU5B5x1Xtl8WT1Nq4HLG0VRoGrUCDjrPVHcWHRINlJndmLodFxN6thQRoeH0hoohorMLMOgw6aKUEnyVtWaVewCFRurm4fpivomrapuFEf146KmKlEXT16BfjGZsKbejpqSTZ9IvbP1hZqaql4T6ZMIZk2srs6Kcs0roDurWq3+s3HNP5vm6tlW5zWHog1Bsqrepp9jmK5NmhrAx/Vn7mqhxqK5dBgAAADzgS+XAQDAOckEkbq7YuWrgcaqoSo1q1qjOtBYpzB0Sifr80nOdZj65As45TpKSqdDFcqhylE9TPTystYrmYiUTUfHhzVLUiJT0QW2vrp6uRG4GeuUSkbqSElDI8lGpedUXpl8SX1hUqOVQNW4XpUZhLGSwcQxyUxZy5OBCuVQpWow6X4TYaxMOlI+eYJ5Lc+wIFnVBd2RiuWExqpWtdjKeS9jvZKJWNl0TdnE7PNgTp/vM1JPV6xcJVShGqoaNSpZG/OIppKR8uloUrg6+byECpVAlbgehBrjFYaxMuma8ik3OWw1sbq7SgpLSY1VrCJv6nODhq1WaAcAAMBCMRs3bjwbFvgEAADnm9K+xe4B2s349Jc+0MBgWsVGSercFxg6R2TWLnYPAAAAzjp8wQwAAICzn7caHk6rbJwUW9WOj7n3Sk1dlR0AAADnHUJOAAAAnPV8FKoYGcUKJr1ukzV1ntR8qgAAADgXEXICAADgrOcbK5lXYisnL2ud0qmaOjOnOKcqAAAAzimEnAAAADjr2URNvd21xe4GAAAAzlL2xIcAAAAAAAAAwNmLkBMAAAAAAABAWyPkBAAAAAAAANDWCDkBAAAAAAAAtDVCTgAAAAAAAABtjZATAAAAAAAAQFsj5AQAAAAAAADQ1gg5AQAAAAAAALQ1Qk4AAAAAAAAAbS1c7A4AAIDzVGbtYvcAAAAAwDmCSk4AAAAAAAAAbY2QEwAAAAAAAEBbI+QEAAAAAAAA0NYIOQEAAAAAAAC0NUJOAAAAAAAAAG2NkBMAAAAAAABAWyPkBAAAAAAAANDWCDkBAAAAAAAAtDVCTgAAAAAAAABtjZATAAAAAAAAQFsj5AQAAAAAAADQ1gg5AQAAAAAAALQ1Qk4AAAAAAAAAbY2QEwAAAAAAAEBbI+QEAAAAAAAA0NYIOQEAAAAAAAC0NUJOAAAAAAAAAG2NkBMAAAAAAABAWyPkBAAAAAAAANDWCDkBAAAAAAAAtDVCTgAAAAAAAABtjZATAAAAAAAAQFsj5AQAAAAAAADQ1gg5AQAAAAAAALQ1Qk4AAAAAAAAAbY2QEwAAAAAAAEBbI+QEAAAAAAAA0NYIOQEAAAAAAAC0NUJOAAAAAAAAAG2NkBMAAAAAAABAWyPkBAAAAAAAANDWCDkBAAAAAAAAtDVCTgAAAAAAAABtjZATAAAAAAAAQFsj5AQAAAAAAADQ1gg5AQAAAAAAALQ1Qk4AAAAAAAAAbY2QEwAAAAAAAEBbI+QEAAAAAAAA0NYIOQEAAAAAAAC0NUJOAAAAAAAAAG2NkBMAAAAAAABAWyPkBAAAAAAAANDWCDkBAAAAAAAAtDVCTgAAAAAAAABtjZATAAAAAAAAQFsj5AQAAAAAAADQ1gg5AQAAAAAAALQ1Qk4AAAAAAAAAbS1c7A4AAAAAmLsD+/sXuwvAGbF6Te9idwEA0EYIOQEAAIA2s2r1ksXuArCgDh4YWOwuAADaDMPVAQAAAAAAALQ1Qk4AAAAAAAAAbY2QEwAAAAAAAEBbI+QEAAAAAAAA0NYIOQEAAAAAAAC0NUJOAAAAAAAAAG2NkBMAAAAAAABAWyPkBAAAAAAAANDWCDkBAAAAAAAAtDVCTgAAAAAAAABtjZATAAAAAAAAQFsj5AQAAGgrsUqDR3RksCS32F0BAAAAzhLhYncAAACg7fmKhp8d0FjsGy8YGWNkglDJVEb5jpyS8/bVslWYTCmlUGa+mgTOYtHoiI4MR5IJlF/apa7k5P2+UtSRo2XFMsr09mhJZnobcXFURwZq8jJK9XSpLzf1DVnT4DOjKjqjZGeH+jqb31+Rhg6NaCyWgnynlnVPfe9FGj48okIkKUyrb1lWqRnenHG1osJoReVqrMh5GWMVJhNKZ9PKZwPZ5vttxSS1ZGVeGd78AABMQ8gJAAAwL6yyS/rUmWykD97LxVWVCqMaOFZTd2+30sF8XMcoketW93w01UJUOKZjtbyW9aQJUXFWiONGzbKPVSxU1bEk2TQczatUqChu/Lt+7NQAM1axUJNvHFMpVFTLZZRoeTWv6mhBQ4ku9cwxSXTliorjmWRU0Vg5o9S0c+vt9g/XJlVge+9UK1dUc1aZbIZhdgAAnAZCTgAAgHlijJW1E+GGDTL1QKb/qEbGqkp1JgkOgZMUH6+QllyprGKUVH78r5iookK5aX/TseN8taKxqiRjZOTlaxWNVTLqTs1wQe9UHCoolexQ9oRfTDiVClU5ScYaeedVHqsqzqTUfKorFzUwUg84TZhQLp9SKjSSc6pWqooSqemhqwnVuTSn9KT/aBgF/EcEAICWCDkBAMC5x1c0/OyI7JIlSlZGNFqsKIrr4UI626F8LjkRQIwf29OtoDSqsXJVkZOCZFq5jk7lklJ1bFSjxbJqkZOChNLZTnXmk3OsugqUySQ0WqwqVlLhpOuNqFCuKdG1TD1pI8krKhU0OlZSpd5hJRrD3VPHkw2vyvCzGjY9WtoUmrrqmEZHiyrXInkTKJHKqaMjp+SkkMYrKhc0WiipGsWN47L19m1Fg0cGVXJe0oAOlSSZUPnepRPVqcAZ5+RcU3DpI42Nxcp1BTKSqmNl1Zp2O+fkFUz6MqEyVlUsyWay6vBFDZecSmM1daYSM7+H45qGBitK9qVm/4MpqqpY8fWh9F0JlYbKiioVFaOUOo6f6FQcrSr2kmxS3Uvzk8LTdHamtNUoSARK8PYDAGBOCDkBAMA5yqkyPKBymFNXb7cSVnK1okaHB9QfdauvK90UcDiVhoYUZjvVs7RHgWJVx4Y1NDCoWtqpGqfV2b1UqVCKq0WNDA1o0PSpNzfXj1JTUwqn8vCglMips6dTiUQ94KwVBtQ/JmU7u9WXDGVcTeWxEQ0eq6mrr0eZGarKXGVYxwarSnZ2qbcnlHVR/bz+SN19XUpZTWu/NxnK+JrKhRENDjgt6etUz/Ll6ij0M1wdZxEv1xjfHSZDuWqkqFhWtTOnlGoaKzrJBEoknGpVL+e8vJreca6qYqk+hD2dTSnraxopVeXKFZVdQtkWKWeQSshUa4rKRQ0VEurLz9y7WrGiqpeUSimbS0iFskZrkYpjsfKNIFaupnK1nsQG2fSM7+NWXOQUN/fRWio5AQCYAdO+AACAc5RTZHNa0p1VMqgvBBQkc+pe0qmwNKJC1U86VqlO9eRTCq2RsaFSHd3KJ6oqVUJ19nQonbD1RUJSeXV1JFUrlTXD0iDT+lGp1GTCRNPwVac47NCS7pzSyUQ9tIiLGik45ZYsUWcmqTCwChIp5bp71Z2samS0rOkDcSX5mgojZYVdS9SdTSq0VjZMKtu1RF2JskbGavXjWrUf1tvv68mrXqxJeoKzzUTIGWTTyoSS4qrGyl5xqaxSLJlkSvnxamPnJr1P6mGmpCCpbEqy6ZQyVpKrNcLP6Wwqo56OUEZelZGx+oJCLUUqFmNJRqlMUqECZbP1Lz6iUkXV8cNi15gzVApDO/ld5mJVyjWVy5GiqW9wX9PwkSEdPjTx/4Gx1n0GAACEnAAA4JxllMpmNK1oKsgom/KqVJqTC6tkeup8mVaJRCCTTDcqIZuaSCQUxJFaTP83iY+rKg0PaLgSKp9PNbVvlMqkJ/UtrpRVS2SVnTY21SqVS8tUyqq2ul5UVsWllJ22qpFVKpuWr1QUnaD9MOQjIc5SfiLkNEFCuWwgyas8VlZhLKqvlp5LKTE+F67zTQv7eJWKkbykIJOsB/kmoUymXjldKdaOh4+TGSU7c+pIGcnVNDpUbnmcr1ZViiSZUJlM/T0Ujl8nqqpUmcPtVcvqPzaq/v6xicWLAADAKWG4OgAAOEdZBTNkdzYwjbn7xmsXjey0IkZT/59p0YgxkteUykqn4sARlY4vrl5vPUhl1dXbUa9Am6VvLnaSDVp+A21sIOurcpPG4Tau45ycK2v46LMamXqi9/I2I+clM0v7wFnLj1dmGlljlMimlBwtqlouqSBJQUq5jJEpHH/jTbwv46pKlfpWXBjRM4UpbVcrKkWpiUWMJgmU786o/GxR1XJV5RZHVIv1uT7laxo6NKChSXudSsWaulIJGWsVSIokRZGTl51bzbRJqGdlh7IUWAMAMCeEnAAA4BzlGqsyT08IXOxkpw4bPW1W6e5edTSWSDbG1MPJOV7EBlaqxnLStOpT72I5Y1u2ZQIra9PqWNo9ZRXmyeJZ2gfOWn68MtPIGElhUtlUSdXGiupBJqWUkVyLSs64VFFltmprH6lUcsp3tI7+TSKtro6Kjo60qOP0NZVmGO4+zpWrqviE0kGoVEKqVKW4WFapIz+HVdsBAMDJIuQEAADnKK9KsaQok5v8gScqaqxilZrzokFzZ22gMDy16DRIpZUYKapYy6pj0pByp8pYWT7VpZaLnIdppe2AiqVY6anJiffyxsicoP04loJJpaUnGIcPnCluojLTGEmyyuQSGilX5UygbC6UOb5P9d95L8k4lUr18d8mk9OyJU3TUXiv4sCQhstStVRV1JGe8Y+iZEdOueKIxqYMJffVqkqx6quqL+08/uWGJKlS1LPHKorjqkqVnNLpQNl8UoWBqpyraujoqKKOtFIJI9VmC0q94lqs2pT3vQkCMcMEAADTEXICAIBzlFXoixoc9OrIZ5QMpLha0uhIQXG6Wz0tE8NFFGTVmS+rf2BAvrND2abVz0erSXX1zbTaeUK5roz6B/o14DrVkU4qsE5xtazCaFlhd2891Ayy6syXprQfqTJWb7+nr1NJIwWJUGaspGItpYyNFflASRIVLBLvfWOaBnM8yLTpjLq7Q0UmVLapcrpxRv14V1WpsfJPMp1UYJrePcYonQo1XI6kWlWlKK2Omf4qMqE6OpMqDVTVHEdWi7X6tk0onTSTp4FIJZUKKirGXuVSTT6dUJDNqacaa6AQy0c1jQ7WNHrCm4808uzwtGkoUj096sudZf/9AgCcFGuturq6tHnzZm3ZskVXXXWVVq1apUwmo1KppIMHD+pHP/qR7rnnHj3wwAMaHh6Wcyw+dyKEnAAA4BxllOxcolR1RKODBdViyQYJpbI96s2lzsK5KY0S+SXqCwoaHRvSsaFYsoESqax6+nJKzTK81SY71dubUKFQ0GChptgbBYmUMvlu5Y9XbRol8r3qDQoqjA3p2HAsr0CJdFbdS3LHq0RNqkNdmSGN9B/RiAmUyvWoJz/fQ/uBOfJTKzklmUCZ/JQ3hKlPTOHl5Z0Ul6v1hbpMqFRq+m9vmE4oHIkU+UjlklNHx8xdCLIZ5QtVjYwvl+5rKpXrf2jadELJqSeYUKmkUbHkJ4asG6N0d6cuSJU1OlZVpeoUOy8ZoyAMlEgmZ32PAwDODdZa9fb2auvWrXr1q1+tdevWKYpixbGXc16FQlnGGK1cuUZr1qzVK1/5Su3du1d33HGH7rzzTvX39xN2zsJs3LiR8UgAAODc4isafnZYpmepOs+2is3T5lUZelYjdomWdiZOfDjOOQf292vV6iWL3Q1gQR08MKDVa3oXuxsAMG+CINDFF1+st73tbbruuus0PFzUrp2HdM93d2j7tr06cOCYisWqstmkVq/u09Wb1mnLCy/XZRtWqKsrq/vuu08333yzdu/erThuMV80CDkBAMA56BwMOX1UVc2ECn1FIwPD8h0XqCdz9tWjYuERcuJ8QMgJ4FwSBIGuvfZavfvd79aa1Wu1c9ch3fLpb+t79+464bkvuP4y3XjTS7ThshXaf2CfPvjBD+qHP/whQWcLwbJly/5ksTsBAAAwv2JVxioymZxSwbkRcsalYQ0OjWi0WJVJd6k7nzwLh9zjTBgZKamzM7PY3QAW1OhISZ1d2cXuBgCcNmutLrnkEr33ve/V0qUr9PWvb9Pf/PW/a8eOg3M6f//+fv3g+08qk01p48aLdc01m/Tggw9qcHBQ3lO32IyQEwAAnHtMqHT+3Ak4JckmM8rl8+rI55VNJwg4z2OEnDgfEHICOFf09fXpD//wD3X5hiv09a9v00f//hsaGCicVBuFQlnbt+1Vb2+HNv/4Bq1dt1b333+/isXiAvW6PfH5GAAAAAAAAJhn1lpt3bpV1113nXbuOqRbb/mOCoXyKbVVKJR16y3f0c5dh3Tddddp69atspZYrxlPAwAAAAAAAJhnXV1devWrX63h4aJu+fS3dfjw0KT9V1y5RldcsXraeVdcsVpXXLlm2uuHDw/plk9/W8PDRb361a9WV1fXgvW9HRFyAgAAAAAAAPNs8+bNWrdunXbtPDRtkaErrlyjX3/Ly/Tmt7xsUtB5xRWr9ea3vEy//paXtQw6v3fvLu3aeUjr1q3T5s2bF/we2gkhJwAAAAAAADDPtmzZoiiKdc93d0zf6b2897p+y4bjQed4wHn9lg31RYVmWFjonu/uUBTF2rJlywLfQXsJF7sDp2r79u2L3QUAAAAAAABgRuVyTdu37Z32+mOPHdAnP36XJOn6LRuUz6clI23adKHuvWenPvnxu/TYYwdatrl9217FsddVV121oH1vN20bcgIAAAAAAABnszh2OnDgWMt940FnPp/WpudeKEnatm3PrAGnJB04cEzee61atWohuty2GK4OAAAAAAAALADvvYrF6uwHmeYTTtxmsViV91Imkzmtvp1rCDkBAAAAAACABWCMUTabbLlvfA7OTZsu1LZte7Tt4T3a9NwLpy1GNFU2m5QxUqlUWqhutyWGqwMAAAAAAAALIAisVq/u0+OPPzPp9eZFhsbn4JR0/DVJMw5bX726T8YYHTw485D28xEhJwAAAAAAALAAwtDq6k3rpoWcMkbGmGmLDI2HncYYyZipzUmSrt60TkFg9KMf/WhB+95uCDkBAAAAAACABRAEgba88HJ9/nP3TXr9sUf36xMfv0vyflK15vFV143RY4/ub9nmlhderjAMdM899yxo39sNIScAAAAAAACwAIyRrrhytV5w/WX63r27Ju2bKcScbWX1F1x/mS7bsEJ79+7VAw88MK99bXcsPAQAAAAAAAAskM7OjG686SVavrz7tNpZvrxbN970EnV1ZXXHHXdoeHh4nnp4biDkBAAAAAAAABaIMUZXXrlab7zxxcrn06fURj6f1htvfLE2XLZC9913n+6880455+a5p+2N4eoAAAAAAADAAkokQm19xY9Jkm695Ts6fHhozucuX96tN974Yr3spzZq/4F9uvnmm9Xf379QXW1bhJwAAAAAAADAAsvlUvqFV23WJZeu0C2f/va0OTpbecH1l+nGm16iDZet0P4D+/TBD35Qu3fvpoqzBbNx40a/2J04Fdu3b1/sLgAAAAAAAAAnxXuvkZGSHnv0gO757g5t37ZXBw4cU7FYVTab1OrVfbp60zpteeHluuLK1crnU7rvvvt08803a/fu3YrjeLFv4axEyAkAAAAAAACcYd5LcRwripzi2Ml7L2OMgsAqDK2CIJAx0oc//GHdeeed6u/vp4JzFgxXBwAAAAAAAM4wY6QwDBSGwazHfeYznyHcnANWVwcAAAAAAADOUgScc0PICQAAAAAAAKCtEXICAAAAAAAAaGvMyQkAAM4t5dsVfecDck6S2aDg+tsUdFhJNblHtyrad0xSTubSf1Tikqumn+/uUfSfvyNXc5K5QHbzvyvsulfR3W+XqzhJgczFtyrxnCtm6ICXjrxHtYf+Xd5LyvyyElteJfffv6J4NJaUlL3qawpXPaXov36z0eYcmG7Za7+lsO8pxfeOt3UCfX+sxObXyEjSoXeo+vBdrRqWbFpKrZTpvFZ2xS/ILrtSZq5fhc/YrpWCTpnsJTJ9Py277hdkM6mJ3X7Xqd1Hs/I2uQNfljv6oPzYIfnISWGvTMdG2QteLrv6JTKJqTfS/HswhQnq5+c3yi77edk1L5IJm6464+/WDJqPn1Uo85x/VeLii050IAAAAGZAJScAADgPjck/+U5Fh5+d2+Hh9QpWrW1sxPIH/lUumuFYf0Ru73/WA04lZNa8Tmb2ueQXmZdcSSrtlj/yr4offqNq9/6R3HDhNNt1UjwkP/oDuaffp+ieNyg6fGheeiyNyO95l2p3v0nRE3fIDe2Rr1UkX5Nqh+UHvqV45ztUu/tGxYf2zb1ZH0u1Z+UH/0Pxzrepdu+75AqVeeozAAAAFhKVnAAA4PzkD8k98m7F2Y8q6Eyf4OBGWLn3w/Kxlyrfkjvy27Kr+qYfOvpFxQPl+r/D6xSsXi/p8enHmV7ZZT8j1ZrK/Ma+Lzcy2Ljkc2T71jedkJNNT/1+2soseYVMNtG62x0XTq9+lKRgjUzfZTJGkpwUDciP7pSvlOvbha8peuCQgs0fVdB1omfT3O5a2Qsub2zEUuUpuaGnJeel6Am57X+gOP//FOSnpr4ncx8F+SfeqtqTP2o6IKxXoiYTUuWgfLUsyUvVRxRv+zX5+FMKV6+d1qxkpMwm2e5l9U1flsYekxs9Wj+/eJeih1Yp8YK3nX5QbZbILJtSGXqclensPM0LAAAAnN8IOQEAwPkreljxQx+Qef57ZVMt48AJ2Z9VsPTjig4PSyrK7f2K/MpfbQSF44py+74k770kK7Pihnq7vkV75mLZK9/fNKzGye954fkFkwAAIABJREFU80TImXuFgk1vmtK+prQVyqx+l8JVJxmQJbcovObdk9v2I/KHPqrosc/K15xUe1jxI5+UfcFvz33oevJ6BZumtFv4vKLvv68+LD9+RG7fwwquuHbKiSdxH/1/q2j3o40NK3X/T4WX/5ps99LGfYzJ939J8Y6/kyuUJH9U7rH3Ku7+ZItwVVL3GxU+96VNL9TkD/+5ooe/Wv85jn1R8bFfV7gsN8eHMJPVspf9HwVZBlIBAAAsBD5lAQCA85iXil9RtO02+RPOm9gtu+4VjQDPSyNflBuaMpS5cpfcocYQeHOx7NqfmP8uLxTTKbPyXUpsetXEPRY+r/jo2Om1m3+VgpUrGxtOfvSJxlD+U+APy+3+ciNENlLHjUpsfvdEwClJJifT93qFz/uzicrXeJvc0/fN8SIJmWW/KtvZCER9QX7kwCl2GAAAAGcKlZwAAOA8ZKRUn1Q9Knkn9f+Noh0XKnHl9bOf1vM62c7PKx6uSf6g4r3fVdDzssZOJ3/ws3JRI4Bb8jrZjoX+qBXLH/oHxaPJ6buSm2XXv3B6JeisjNR3k2z3VxUP1urVnf2PScs2n2Y/T9SJOd5H7f6JYNl0yl5y0wzDvyWlXqrgwqvkdm6X5OSP3S3ntsgu2lf8h+R2/7WUmNpfI3W9SsGK9S3PAgAAwNwQcgIAgPOQkZa+XWH4SUV7dkuqyu9/j6KOTytcPdtp62XXPl/xI9+V5KRn/1Vx6ScVZKwUPyS3b0fjuB7ZdVtPMmA8FbH80dsVH22xK2dk17/w5Js0y2U6eqTBZyU5+dLh0+ti4cuKnznY2LAyHZfWn8ukas453kd5v7xrnGgulunKz3JhK9O9UcZsr1eOVg9IkZda5KiT1eSPfFpupLHqu8nLdM72SzFH/qj8gVs1fS15I636cUJOAACA00TICQAAzk+mS/ayDyso3KT42JDkB+V2vFNx5qbZTpJZfoPsE/fKlZ0UPyh34HEFl14mPXu74nJjzHv2lQqWdpyR21gYpzievHqv4m3vbmzEUuVp+aGnJoLJ4CrZNc+dp27NU4I8dKuih7/ZaL8iFRsLD40Pic/+goK+052PEwAAAAuNkBMAAJy/7HoFm/5S/r9/T26sKrknFG/7a5l4lpAvfL6C1RfJPfmkpEj+wOfk1r9Jfu/djRAuJbP2tXNfrOe0JGWvvuvkFx6ajT8sPzrU2LAymeVzPzfeJ3doX+t9wXrZq96noKPVMuVzvI/MGhlr6ivc+93yw0UpM1M1p5MffnRi/s/Eamna0HYvlR6WK7U630iZFyu85q2nv7K6JJmrFbzon1h4CAAAYIHwKQsAAJzfktcrvOZ3ZRONj0W1oxOVhy2FMqtfJxs0ArPyN+Ue//jEXJGJFylYOQ/DmxeFl/r/P7mhWn3TdMr0XnGKbVkp6JTJ/5jshe9UuOU2haf7XBLPk+lujDf3w3JP3SI/ffx3XfVuxXu2H++LWfrCOczHaaWwT6b7f8he9mElrv+IbEf69PoMAACAM4JKTgAAgI5fUXD1k/IPfqmxcvcJZLbKLvuY3DODkkbl9n61scPKrLxBNrngk3HOP1+QP/xRRY9+oVH9aKT8axUsPYmh2plfVuLF7164uUjNcgUX/bzcwOfrP6fhT6n2QFXhFW+S7expHFSRH/yK4kdvlis1pg8INsquf0GrBqUVH1byuS9doA4DAADgTCHkBAAAkJG54A8UPmefao//cA5TUnbKrv05mUO3alImajfIrv2xBeznVJH8/vcr6p/hI53dqODK/zk9dKzeo+iho43XvRQPyo/skK80jdtObFKw8c1naNj9XO/DSH2/q/CiR1Xb/ZgkJw3eouje2+pD2ZMJqXxAvjI2ca7pk738TxXk52PMebNn5Hb9gXyr1d3Nctnn/K7spF375Xa+V36mT9/5Vyq86Hnz3EcAAIDzByEnAACAJCkls/4DCgtvUnTw4IkP736tbNdnFQ9VGy8Yqe8G2fyZnA3IyQ/eKT84w25blr2iRcgZ75c/sn+GLNdIuZ9WsOk9CrrO1FDtk7mPvMxzPqpE8i8UPX5XfX5O1aTSU/KT5tY0UvJKBVf8pYIV6+a/y35E/ug3Wz9Dc6nMRb8jJZqPH5Q/8tWZ8/PejfLrn7dwVbAAAADnOEJOAACAcWap7JUfUlD8dcWDYyc4dq3sui2Kh/5z4ty1PzVfa36fQUYyKSm1UqbrGtllvyC74uozVMF5qrpkLvyQEssfltv/JbmjD8mPHZaPYynslclvlF32ctnVPymTOKtvBAAAAPPEbNy4cQ4TT519tm/ffuKDAAAAAAAAgDZ29dVXL3YX2gJfbQMAAAAAAABoa4ScAAAAAAAAANoaIScAAAAAAACAtkbICQAAAAAAAKCtEXICAAAAAAAAaGuEnAAAAAAAAADaGiEnAAAAAAAAgLZGyAkAAAAAAACgrRFyAgAAAAAAAGhrhJwAAAAAAAAA2hohJwAAAAAAAIC2RsgJAAAAAAAAoK0RcgIAAAAAAABoa4ScAAAAAAAAANoaIScAAAAAAACAtkbICQAAAAAAAKCtEXICAAAAAAAAaGuEnAAAAAAAAADaGiEnAAAAAAAAgLZGyAkAAAAAAACgrRFyAgAAAAAAAGhrhJwAAAAAAAAA2lq42B0AAADA/Kje+dzF7sK8SG59eLG7AAAAgDZDJScAAAAAAACAtkYlJwAAwDmCCkgAAACcr6jkBAAAAAAAANDWCDkBAAAAAAAAtDVCTgAAAAAAAABtjZATAAAAAAAAQFsj5AQAAAAAAADQ1gg5AQAAAAAAALQ1Qk4AAAAAAAAAbY2QEwAAAAAAAEBbI+QEAAAAAAAA0NYIOQEAAAAAAAC0NUJOAAAAAAAAAG2NkBMAAAAAAABAWyPkBAAAAAAAANDWCDkBAAAAAAAAtDVCTgAAAAAAAABtjZATAAAAAAAAQFsj5AQAAAAAAADQ1gg5AQAAAAAAALQ1Qk4AAAAAAAAAbY2QEwAAAAAAAEBbI+QEAAAAAAAA0NYIOQEAAAAAAAC0NUJOAAAAAAAAAG2NkBMAAAAAAABAWyPkBAAAAAAAANDWCDkBAAAAAAAAtDVCTgAAAAAAAABtjZATAAAAAAAAQFsj5AQAAAAAAADQ1gg5AQAAAAAAALQ1Qk4AAAAAAAAAbS1c7A4AAAAAAIBzx0/8+B8sdheAGd3/gw8sdhewQKjkBAAAAAAAANDWCDkBAAAAAAAAtDVCTgAAAAAAAABtjZATAAAAAAAAQFsj5AQAAAAAAADQ1gg5AQAAAAAAALQ1Qk4AAAAAAAAAbS1c7A6cN9z3Ff3Xb8pV3NyON92y135LYd9Tiu/9FcWj8YnP6ftjJTa/RqbVvtF/VO3ej8l7Lykhc+m/KHHJJa3bKd+u6DsfkHNGyr1eievfIRPMdmEvHflj1R76N3lvpBUfVvK5L529r4feoerDd0myMqv+SomrX3KCmyvJ7/hl1fbskZSUveprCtf0TWnrBMwKBc/7qoIloeR3TTzX4CoF1/2Tgo4TvB1Kdyi69y/kak7K/LISL363jNHktqZfVLIZKbVSpuv5smtfr6B3xQzP4iT6f/xn1Op6WZn0OpklL5Rde4Ns15LpbcUH5A58Vu7w/fKFA/K1ihR0yKQvlOn+cdnlr5Rduu7EfZpkWO7hVyk6NFjfTG5V+KL3ySZa/UbW5B7dqmjfsRb7rBTk633peYHsqlfJLlk+/bDZnoFJSok+mY6rZC94ueyqF8skpn6nM1sfpgi2KnzZ+2XtfFwXAAAAAADMN/76Pi8U5fZ+sRFwSlJNfv/tcifMTb009jlFT++a/bD4h4p33anjzcvPdvQUTv6Zv1bcPzb7YaOfUbR/76SuzZv4UcU77mjqfyuDco//Qz3glHSCg5t4yRWl0pPyhz+j+IEbVHty+2l2+ETXG5MvPiZ34B8V3fdq1R7//uRDSt9Q9L3XKXrsVrmBx+WrRcnHUjQkX3hY7sAnFf3gBkX7Dp/cpYv/pvjZoYnt6n8qPnjwFO7BSfGI/Nh2uQMfU3T/q1T74afkq3P8gkBe8hWpelC+/xuKd7xdte+8UdEzT59CX07GYl0XAAAAAABQyXmmmF7ZZT8j1ZqCmrHvy400qt4Sz5HtW990Qk42PTWDtjJLXiGTTbS+RseFras4K9+QO3Rk8mvlO+UO/abs6r4TdLwi//SHFK/4uIJcq0y8Jv/0RxSPzaHSdCZ+v+Kdt8he91aZVpfwB+R23CIfNweLM4SM4XNkl1/Zep/plkm1vIA08DHFh39S4YoZnkf/Pyo+1D/1rBbPO5BZ8RuyXanGdixVnpY7/E35UkXyI/K7b1a88pMKsi36cir9N50yfc+XCU29V9Fh+aFH5Wux5Ifkn3qXotxnFa5aJvlDcj/6M7lCaeLc7mtkMjkp7pcf3SFfHJGCTbJLL2jdj5aq8vs+O+VnVJHf9zn5tb/X+uc6cQNSeqNsd+N6PpJqh+RHnpCPnKSy/LN/p9r3hxT+xNtbV4aaDpne5zWegSQ3Kj+2S35sqP5Mao/Kbf91RfGnFK5pVaFqpNzzZXtaVIxKUrCxXrU779cFAAAAAADzgZDzTDEXy175/qbSWSe/580TIWfuFQo2vWl6kDIpywtlVr9L4arOk7hwXK/ajHz9/L5rpf775X1Rbu8X5Ff9Ruvwpln0oOJd/y57zSunH1v8guKnd8zW6Tnw0shnFO3dqsT69dP2+cP/V/FAYW5Npa5TcNXvnfiepnVhQG7XP8j1/fH0EM3tULzzjqZK2EafWwpklv6Sgik/o2DdlYru/qCc85J/Sn4sllqFnKfU/5Wyl31AQUdTe7UfKX7wtxQPjEp+SG7vV+VXvlmmeo/cQLF+jFkue80/K1zW29RWJI1+R/FQt2zmJAq9a99RfPBA/d+Ja2VzO+SGilLxK4qf/VWFy7tmP7/nRoVTpziI98s99eeKdz9Qf/aj/6x41wtkr7quRQOrZDd8aPIzUCQ/9EXFj3ykHur6Y3I7/kzxkk+0Duy7f0XhxhfO/Z7n67oAAAAAAOC08Rf3uS66T/H+J+r/Dq6RvfKdsp0JSV4avUNxf3EOjTjp2b9TfHRoyuvH5HZ9vBGgjvOnOJS8KL/7I3KlKUOSo/9WvOuuKaPD53OsepPSVxTv3jblRSe//68Uj1RPr22bbCr7XCaTnnWS09OXuErBhS+a2C7slHeSomJTWNspk5kamIdSx0sVrLn2JC7m5A/eJld1kqzMircouOgnG/OVDsnt+be5j+5vFqyRvfRvFF70nInrPPMZucpcGwtlul+ncPP/lh2vgI0fkts39Wc83xbrugAAAAAAnL+o5Gwrsfyhf1A8mpy+K7lZdv0Lp1QAOvlD/yJXrodPWvpaBdmL5Nc8T/HwvZJ/Vm7PN+R7f3HmykETSHL1Y3d+Qr73nY1FiLx09KOKjwzU2w5SUlw6tdsyQX1OyNq9ih//tuym8Yq+ivxTf90IPlNSEEtx1Ng3Q9BV/YHinR9pcT+BzIrfbBpGPnmfjJN8JL/vQ4pX/ZOCjsaUAJU7FT/5YOOwbH1+Td+4fsvx6k5+8OtySje2Y6myR+6ZL8jFXpKVueCNsvkZvl84pf7PwNh6/8b7K0mZq2TTVnHJSf4JxQ+8Xn7FVtmlm2W6N8gkTuE/CW6b3N5GgGcull3z4zL5pGzma4qLThr6rNzQ6xT0tPi9PaGMzIVvkN3zf+rPL35YbrAkuzw79ybSL1ew6pNyT+2R5OT775f310x/xsNfUrzzgennmxWy639JJnmS5cFzvS4AAAAAADhthJxtJZY/ervioy125Yzs+ilDbf0Tcnvvr//bXCC79sWSrMzy18o+fl+98u7Y7XKFn1fQMUNlYfgiBRfsVHzwkDT2eUVP/ZwSl14uxY8o3vWVeoVeeI2CdWnFu+89tdta8hrZ6hflRmvyh25WvPr5Cnpz0thnFe15QpKROn5JQf5Lig8Nz95W7VG5PY+22JGU7bipdUhoVsquvVBu33el+DHFO+6Q3XyDjBmRe/xv68/JLJG96Gfld996gqrESH7/+xTtb7XPSB2/rGDjz84cdJ1K/1uJn1C897sTWXDusvq8mObHFFz1RrmHbq3Pd1l9XG7v43J7JZmsTOe1Mhe8QsHan5ZJzqXa1EtHbquHpjJSz2tkOwLJbJJdvUHx449J/oDivf+loOen59b3qRKXyWStNBpLqsqX+iWdRMipUKbzUkl76pvlQ/JeU34GXir8h+JWsyKYq6U1Nyg42ZBzTtcFAAAAAADzgeHq57Jjt8sVGpWP+Z9XsKRRXZh4gYKVq+r/9k/I7f3vWRrplLn0bY1htxX5PR9WPFaR3/dXikdrkpIyF75DNtecl5/k2ORgo4INvyhjTD0Q2/Fp+fiw3M5P1ReyMasVXP4mmaApHTql8c8zsTIr3q5gSU7HFyE6dFQa/JTig0ckGWnJWxSsWNp0/VO5jpdGb1N0//vlKnNdKXwuDss9+WeKHvlTRY/8iaKH3qrad96g+FhjegHTJbt2fD5VI/X9nhJbPqZw/U/LZDuauleUH/6u3BN/pNrdv6a4f3AOt7Rf8d67G1WtnbJrX964jpVZ9VrZwEhy9SC0OJ/3fJIWK1gk0AQAAAAA4IygkrOtJGWvvmtuCw/5I3J7vtnIAq2UGJTb/YmJ/VG3ZPZL3skfuk3ukutarObekPopBZd+We7R70nRQ4of+X25wiOSjJR9jYL1G2SePb00x/T+loIV31b0zFFp9J8VPbRNOjaseuXp78j25uWfmXSDrRvK3ajEC09h4SG7RsHlN8nd9/fy8aDcrv+tKLmtPn+lvULBhtfImNtPfP1WPyM/Jj/yXblH/1zx8Jg0+nnFO3+iaVj+afbfD8kf/lLrHpkumQvfp2D1ismvZ54nu+F5shucVH5cbuAH8ke/LXfkwXqwXHtY8fa/k3nRH8vOVtA59Fm5oUrjWkuk0c8pHhvfOSalrFSMJbddbu82BZdfcxI31lB7XP54QJqUyfTOevh0kfzwkxOb6ZUtnq+RVv1fJa8+2YWHTve6AAAAAABgPhBynqtGv9C0qJCTBj6neGCGY6P7Fe9/QvbSy2Y4wMqsfoeCg69XPFiSBu+pB2pmqeyGt8iGsy4JPzemR/ay35Y9+qdytZL80cbciInnK7jspTKK5Re0LM5IHW9QuPZrqj39lFT+vlxZkgKZtb+voDMhlU7x+iYn0/VyBRffrfjBr0ly8sfulXMvlV3QWuqMzGX/1GLF+mZWSm+QXblBWvkGBcN/p9p9n6yH45Xt8sVYmmkqA01ZVMg9Lbf772c4trE40cXPlT2pYd8l+b3/3JjPVFLwXNmezEmcL6nyLcUH9zY2rEzv885M2LhY1wUAAAAA4DxEyHlOGpPb+8WmVbRPJJLf/y9y6/9EdqbfCHORgstfL/ffn5J39QV01PdbCi7oGT9g4thTHUme/jkFl3xFbscPx1+QuejtshkrKZ40meHCrK+elrn4HbKHf3tilff0KxRc8mON/c0J1cn2wMmXDjdtnuZq7c3MBgXX36agw0oqye/6X6o99YSksvy+f5Fb/YeyifG+V+Qff7tibVWw9qdk0s1zfHrJVZq2M1IwSyo39mXFz47MvZ+1uxUf3C+7fu3cjo8PyD31F4p372y8YGVWvl42NdekMJaGv6zokQ9PTA8QXCO7dtPc+3xKFuu6AAAAQPvLbv1f+vrvFfTOn71D97vVeuvtv6H/8fBt+q3371D/8RmwMnrFR/5IbznwKb3270P9/hffpCvv+Fu96ZNH1DxJVnjVVv3LxzfoW2/6G33m4jfU233lf+nif/h9/e6mFsUcvqJvvPPP9YHMr+gbf36FJi2d6sb01be9T3/xvbjpxUDPf88f6v3PeUBve+s3ta0w/nei0eo3/Jb++Wd26MYbv609ZrXeevtbdeP6yVUutW3/rhveXtDb/u1VqvzJX+o9/zHL34nhRfr9L92ki/7pQ/rtz480/UVqdeFNb9WtNxzV//mlf9W3h5r/VjXqe8UbdNt7MvrEL35CnzviZVdu0ce+8HPalJh0c/8/e/cdHUd5qGH8mS3qspoLLlSbYoypAS6EXkMIhAChhV4CJsSEAGkEbkhCC4HcAAESenUIzVSH3mOq6abbuGDjIllWW2nLzP1DMpZlC1MjBp7fOTpHmvrN7s5o9p2vMO3qi9n/opkE63+Pmy9Zi8d/cgF/mbRkeRIrb8kl1+/Egj/8gV/dn4XEIA646AiOXL+CsjTkMq3MfmcqD153H1c/Wk+26/3s9bV8uj8HXz6Go9cpJklErrWFD95+jweuf4DrnmggCyRqV2X/n+3CXlsMYYWyiJa5c3jp5js57brptPf+aukbypAzVvJEM84iX9/L25YYTXLUPgQdEwhnz++cFqxB8tvjlj2wUOFZCk8c0zloTMcDhLPHkFhxUO+7rzqM5Ir3k582HZLrkFxr98W5Y/B5AsBFkgQrnUxy1iEUFmahYl9SK4/oNv8ThFsdT1F4tbcqq0mCQceQHLRC7+unNyO51k5EL/2biCoSq/+kW0D4SXQNDpXtFh5GGWh+hvDDl7omBFC93rJr9X3e8lNKMOJUkvOOpNCchbZbKby1FYl1tuja/gMUpk8kzD1FOOUMgoq1CcoHdYaZHe8QNbzTVTMzgOodugLmZekgmnbz4sB78NkUrb+sgYVCounHkHv92c51pt9EtPLJnYMgdbfgGvIvTuj8PcpD7kOipneI8otuIAKoPIDkmpv1Up4PCN88mWhRreKwhajtbaKWBXz0eQz6kxh5KsnyXo5pwfXkX7l/2fOCKhKr/pxERc91v4D9SpIkSfoYSVb+/r6cNftyjr9yJpmeszve5/6Hmvjejuux+lX381Zh8XqjdhrNCu8+x/3vhjC8a3LYyO0nncOD6QBSQzjs0gNY7dZLOG1CKxER7Y152B6iBS/y2wPvZVLXMBdEEe3NhZ57BwJK1t6Gs/+4gKNPepbp+WUsAkCB1y65mF+OX/jRN+Yo105ja3/empFk+zUGkHzoAwoAFaM4ddweVF95ESffvpAQSPRfgRE1TbzxdmuPb9wB/Qf1I1U3hGMOnshTF0zno2iybDiHHTOSquQ8aqsDmNO1Zjiffx53Gde+sygSjihk2igApQOqqE3V8YPj/ofbj3yc9xctEpSz/THbsG5pgpdqykiQJQzSVA8o5d2/X8BJtzdTUlPH6F135uQzDyF11F+5+PXO16vX1zJIU1GZ5M1LL+TEWxaSqqxija235cSzj6Bq7P9x/qQUW594IEet+hrn/OxmXpwTUrniMFYtLOALrDakrxFDzlgJiRZMIOptPJhEO4m194QZ/+xq3htA7Z4kKnppbpzciMSwERTeeRtoI5x2K9GwYz8mSiwnsfrppFJPEFV8h2RF94/PFxFyAom1SK7zW5g9jWDQoQRLFP0T7CP/LuEH7y57HkmCsgOWExIGBINOILnmUKJwNImhKywxb7n7p0A0+2IKs3vfPkWbLBkQf6HlB5LrklznYMJnriAKC0QzzyQ/8EZSA6uhvZ7O6rpZiDJEzS8QNS+jjGU7kxq9f+/Nq7MPU5jV1UlqMJDEilv1smCCYPDeJN5+njAXQuZuCnOOIjW4vNsyEbS/QvhhL5ugmGDAkSRHH9F74Bw1E81/qJd3JYD0WiRGnklq6Cq97COCtmcI23qZHQyEIccvHXJ+7v1KkiRJ+ngFXr1zEsGP9ufn717CmY+39Lj/zvPqfa8ye6/R7LjWQ7zVFaxRtAo7blvJG+NeYXoIJR8tH5JZ0NQZlqaqaMtDtrmZuXObP9puGUCUo6mhmfrc8soXkX3maR5Z4Tv8ccxcxlz0Pq29fV1ta6Whvpklh2Sdz1vvZDlorcFUBh/QGEHFJuuy5aByindamwF3TGROCKkRQ1ktP5vb3usZtKao61/C3BffJ/X97dj5n9dw19zOPGDobtuxc2YqLy0YSG1N9+9SIe0Lm6mv7zk4bEB1/wqYOoXJg7/NwVs8xx8ezxAB6TU359BN5zPp9cHU1ZUT0Lj4uDIZWppaaWpq5aHLHuFbux/K2iPLCV7vavnX22uZXLx+U1MrYVMr8//5AGvuMpZdvz2YC15sZ5WVipn39PM88Mo88sCHc+p5Z3lvib6xrFr0dZN/isKMKZ2/B5UkVvzOx/QDmOw2AnYELbdTmNfa28Kd0huQWGMsySFrfIGF7qHfbiTXPI5EdUXvy3w57dU7BYNIrPpTksO3WfK1+0y1VQMIUpCqI6jajMTw35He4m8kK4uXv+rnUX0UqdXW6vw9mkU4+TzCbARVh5Da+k7S640lOeTbBOUDIVXUWcb0CgQ1O5Ac+VfSW5xFojzdy8ZDopk3doaWABW7k6wt6WVZIL01iSFdNYSjJsL37+Dje1JIQKKCoHwdEkOPJLXJbaS/dRSJ4k96uQogSEN6MEHtjiTX/BPpra4nNfTj+ib9IvTVfiVJkqSvt8zkRzn1nA/Y5Lf78IOVlq7Ek588iQlTathu5xVZ9C2meIN12brfVO55oIGeUd4XLVr4Hhf96kEad9uXX2zX71MGLXneeHUWwRorsnoKoISNtx/Oh7c9zeS11mHLgQGQYKW1h1Dy3jTe6FmVNVFGdRXMe/IBrnp5RQ7cb1hn0/DS4RxwQH+euuxhXlhQTG3NJ6njFlBVU070wYtceEMjWx26MSsmgKCcrQ/ZlKK7H2DcGxmq6sqXfYyJIlbcdn2+VV7Pa5N71jj9JLtPM2ij9dl85YDmpgxhWM/Ex+cwYO+9+d2hoxhR/XGj4krW5OxDCYJVrqRoleUsFqxJcosX+DSncmK7SZ984dJ9SO20T4+J+5Haeb9PsUdg8HkUDV7+YouX//OnW540iXUepGidL2JbfKbXlZL9Se+8/xezre4+S/lLlvceFROsPo6i1ZcxK7kCwZCpTdVIAAAgAElEQVTDSQ45/DOWOUGw2nUUrfZJly8msfYEitZecmow6kGKRn2mAnRa7muwPGkSn6UMn3u/kiRJkj6diDkP3M4f1x3DWadvzWvHTFxydjiXCXdO45BDN+Rbl7zPxEwJm31vFEX/uYOH53+2GjJB9Uac88C6LKo3mZ/8AEcc9xQze0lM8+9P5Pd/Wokrf7U333/rGp5baokko4/7GQ8c3VWeKMP9v/kz50wssOC16cyqWpNRwxI8P391tt94AQ8d8yStK/+UHbap5rabsqw1qo7616bz4VKVLztDzqYFc3jgqhc46Lyt2Pq6cby8zVbs2PwMxz7ewEb7QFVNOQm6xmBI9OeAv5/G3ou2lX2HP+19I/c1BfSrLiW3sJV3xj/KY/vvxn7feprz5m/Cjzb9kH/+aCrzftBO6YhyioFc13Gtd9zP+PfRkC4tpjQdMvOumxj/9uIap72+ll3rr3PsWP59ZNf6RQFtbz3Jr8fPJyTizcsv58hp3+bAfb7H5Ud+n/ceepJL//YUz81dVtcB+qYz5JQkSZIkSV9tUYbnLrqZmy8/nN8eMZPxS7RYjJhz/3M8fczu7Lblv3lm0tp8f8s8D//iTZo/YyvAqOk1zjn837zU1Y9k1NHGvI+tEhox/6E7OXPjY/n9bzdn3tM95xd469qr+O1dnX1sEoVkGjqDusKUKby0cAvWG11GdX59vjX9FS59fwHtD8zkmD3WZ6U7Z7H+yBwv3zqLpbr8DEroV16guSlLx+v/4Z9vj2X/vddnje2H8tK1/+K9bJ7VW6CiqoSuNpwQNnDnKVdx/XtdBxTlaGzpbOJeXllEy7wMYct0brxtBy4+cBPemLsJtQ/dzoTZITUL26GilIoEtHQd1+Srr+C3dzdDqpj+q63Ofif8kL//MsuBZ75F4eNey2TX63LdVfxmfBO12+/J+Qc2c8aYe3mmaXEY/O79D/K7+x+ibKW1OOg3e3H+RWWMOfDfvGbHnOrB5uqSJEmSJOmrr30GV/3+CXJ778GPVl8yzogaJ3Pbgzk2+/56bPjdTdjgwxe4/YXldqjZu7CDhtkLmD2r8+fD+g6WW3cwauOZC25jQu12/Pz71UsFLtmmhR9tb/bshTR2LJoxg2deLDBq03X57vdW4e17X2FWGFH/yCQmDV2f3b63OusVT+PZl5cxqlGimPKyPJlMBGEj9934Gv0P25N9S15i3EMtRHTOK68s6TbKREjL/AXdytJCJgSCYirLAzKZLBEhU25/kpfX+Q6/2LmN8ePepQ3IZLJQUUr3URZyLc3Mm7uQObPm8vqTE7ni7rnUbrhaZ1P3T/Ba5pqbmTu3kck33cZFb63B2ONWp99S3e5FtE1/gysufYn6YSPYaKhxlpbmp0KSJEmSJMVC9u3HOeu6FuoG9UzBsrxw83PMXH87Tj9wEK/e8hzvfp4WzUGafrWV1NUt+qmgpmL5jWGj1in8/ewXyK1QuVTgkiorp7au2zZryyhJdJZ90pNTSG6xE4evMYW7HmoiBKIFk7nz8TL2OHZjBrz6Js81LaNaarqYinSOTHvnn21PP8lVD07l/iv+w8sdABGZtizlFSXdypOgpKr7sVVSW11MKiimvDygvS1HBEQNr3HdNW8x6faHGD817NxWaxbKO2tyfnRcpWVUVVfQf/AARm2zFcf+YAWaXpvGjI9GZv+Er2XYyL3nP8LcHfbgJ5uVESQq2fSHW7DjRkNYaUg1Q4YPZ7c916KuZR7TPmM3BPp6s7m6JEmSJEmKiTzv3jCe67Y9hu/1mFN49xluenYLThn5GmdNaPxcAw4FNRvwx3s26DYloumua9j19DdZXivpthcf4Nzb1+L8JcaUSLLOmOO4Z0z3Q5nOBT+8lBtmhDRNfJ0Xg5GMfPx5nly4KMDr4Nk7X2bhrpvywSNv0rCMXC9RXkIpOTLtXTPDudx+2hXc3m2Z9rYc6boSiqGzuXuiP/td9Gu6jzQQTn+co/Z/kfJS6MgsOsIcr15zHcd3W66QyZIvL6E8AMIcjfPbWWPMWCYcB4VsOws+mMPL99/C2CvfoDnqHKm+19fyjy1LHU8481kuvm1TLvn5Ntx90HPUDl+d/Q7chpUHlpHOtzFz8htcdNIEHvus/RDoay0YPXp0LD8Zr7zySl8XQZIkSZIk9bDpt37V10WQevXM82f3dRE+tXXXXbevixALNleXJEmSJEmSFGuGnJIkSZIkSZJizZBTkiRJkiRJUqwZckqSJEmSJEmKNUNOSZIkSZIkSbFmyClJkiRJkiQp1gw5JUmSJEmSJMWaIackSZIkSZKkWDPklCRJkiRJkhRrhpySJEmSJEmSYs2QU5IkSZIkSVKsGXJKkiRJkiRJijVDTkmSJEmSJEmxZsgpSZIkSZIkKdYMOSVJkiRJkiTFmiGnJEmSJEmSpFgz5JQkSZIkSZIUa6m+LoAkSZIkSfr6eOb5s/u6CJK+gazJKUmSJEmSJCnWDDklSZIkSZIkxZohpyRJkiRJkqRYM+SUJEmSJEmSFGuGnJIkSZIkSZJizZBTkiRJkiRJUqwZckqSJEmSJEmKNUNOSZIkSZIkSbFmyClJkiRJkiQp1gw5JUmSJEmSJMWaIackSZIkSZKkWDPklCRJkiRJkhRrhpySJEmSJEmSYs2QU5IkSZIkSVKsGXJKkiRJkiRJijVDTkmSJEmSJEmxZsgpSZIkSZIkKdYMOSVJkiRJkiTFmiGnJEmSJEmSpFgz5JQkSZIkSZIUa4ackiRJkiRJkmLNkFOSJEmSJElSrBlySpIkSZIkSYo1Q05JkiRJkiRJsWbIKUmSJEmSJCnWDDklSZIkSZIkxZohpyRJkiRJkqRYM+SUJEmSJEmSFGuGnJIkSZIkSZJizZBTkiRJkiRJUqwZckqSJEmSJEmKNUNOSZIkSZIkSbFmyClJkiRJkiQp1gw5JUmSJEmSJMWaIackSZIkSZKkWDPklCRJkiRJkhRrhpySJEmSJEmSYs2QU5IkSZIkSVKsGXJKkiRJkiRJijVDTkmSJEmSJEmxZsgpSZIkSZIkKdYMOSVJkiRJkiTFmiGnJEmSJEmSpFgz5JQkSZIkSZIUa4ackiRJkiRJkmLNkFOSJEmSJElSrBlySpIkSZIkSYo1Q05JkiRJkiRJsZbq6wJ8kyxYsKCviyBJkiRJkvSNVVNT09dF0JfEkPO/rF+/fn1dBEmSJEmSpG+cpqamvi6CvkQ2V5ckSZIkSZIUa4ackiRJkiRJkmLNkFOSJEmSJElSrBlySpIkSZIkSYo1Q05JkiRJkiRJsWbIKUmSJEmSJCnWDDklSZIkSZIkxZohpyRJkiRJkqRYM+SUJEmSJEmSFGuGnJIkSZIkSZJizZBTkiRJkiRJUqwZckqSJEmSJEmKNUNOSZIkSZIkSbFmyClJkiTp42VmMHH8OP71wGQaw74ujPR1FbLg9fv517g7eHpme18XRpJiJ9XXBdDHiFp498Fx3HDHo0x6+wMaMlBSNZCV1tyAzXfcnR/sMIpa30Hpy5V7lrN/8HPubPj4b3Sp1Y/kqqsOZ/iX9Ogomn87x+91Ls/n0mx44s1csNfAz/GUKmTurWP54XmTKFRuxNhLz2efVdPd5rcw4Rff4w9PZkmudhhXXnMUqyc//zFIkj6JxdfoXG+LpDfjlLv+zK79gv9SmfK8evkJnDxuFmFQzqTwZs7auZznz92TE26vhyH7cfE/x7Ku96X6GgtnjuPYAy/ilWxEcpWD+Me1Yxj5BX/mo/p7+OPYs5mYgeSds/nH9ccw0nswSfrErMn5VRW18MJFx/Lj313FfZOmMq8lS6GQpbVhJm9MvIsrz7mEh+f7GF3S5xM2T+KS313OK219XRJJ0ldXQGl5BakAgqCMqn5F/LfiVemrIc/bd9/F69kIgML0CYx/LvOZt/XaRfuwxeabs8UuZzCx+9OMVAUVJZ1nV1FVFeWeaJL0qfi89SsqnHkHl97yHu1RgpqNDuKEI7dnRGWOhg+m8Mrjd/NAx/fYfpAZtfSlS63DYRdezV75zpvazH/+yk//Polcoo6dfnUuP1qz8/F6UFLHirE8JSM63r2R3/9lFP/4zVbUejMtSV8dyVX54Vl/ZM+e/2ASpfSv+G9esJOMOPQCrlrnJWZXrs3GI8ug93qm0tdP5nnGT5hOYdHfYT2PjH+Uo/9nly/03imo2pZTrvw7O73dzoobbMhKsby3lKS+Y8j5FVV4/13ez0eQqGSz/Q5jh/WKAFhltZFsuOWuHPrRkjme62oqlBx9JGfs0cod4x7i9f6Hcu15e9B/Of90wzm3MHaf85lUqGK7Y45l0Ku38vCL79OQL2Pw2luz70+OZY+Rld2e1ocseO1urr/xLh5/eSrzMkmqh6zFpjvvzYE/3JIVS76MV0PqQ0EZg1YdwaCuP9umlHedD2mqho1g9dUXX0bDObdw3D7nM6lQzXd/dRqrTLqGO59pYPM/3MDYNabx2G23cO/jLzB56hya80VUD1uLTb97EEftuwkDu12Nw4aXGX/1tYx//DVmNBbot/LG7LrXSuSXUbyobSqPjLuWWx54nnc+bCGoGsram32HfQ/eh82GFH2yY4wKzJpwNmeMWo0/7TGM3lpFZWZM5I5b7uLRZ1/lvdkLySYrWWH1jdhx/6M4aOsVKQYovMNlhxzOVVNg2K7HskfwFHc+OZnZbWn6r74pux11HPsMfoMbL7uefz/3HvPaixiw5rfZe8xP2We96m7NCwrUvzSea2+4iydem0FDtpgBq23ANnscxEG7rEU/b/olfRMEaWqGrMzKKy/7otf9Pm6bI4+i/yu38cjLM2hK1LDKhjtz2HGHMHL2bVx2zd1MfHM2rclaVttkN4766cFsNqjrH09hAZPvv4Xb7nuKF9+awfzWAsV1KzH623tw6JF7MLq6c9/tD5/NYac9SjY1kjHXXcZBK/+3XgSpr0UseHx8Zyu65KrstEMJj9z/Bq3PjOe+mTuzf4+HEPl5k7jj+pu456lXmTavlaDfMNbZ4vscfORebFj1Jn/70dHcMKOrRd7Cezhx63sgvSE//9cF7N3/Pa458RiumhJSvvPZ3Pu/W5IGiFp45/4buWH8w7zw3hxaqGDQiG+x/Q9+xP47jKDzmcfi74WJtffnxK0Wcv+9E3lzdguJmtXYeNfDOe7QLRmSRpK+tgw5v6IStQOoS0BroZlHLjyN/vN3Y5tN12eNFcp77WMg/84NnHZGO+1hRLoqJIrgE7clChfy8MVndZuQZfqkOzjvZ7OJrjyfPYcmgJDZ9/+O4854iNm56KMl5055jrsueYFHnzqS8/9yKKNKP9sxS18bUTMP/+WXdGRyRIkB5ClQ/8jFnPn3ibR+dOrkmD/1Be65+GVenn0uV564KRUBRAue5E9jTuGuGTkWLTrvnce45pylT+ao5WX+cfxJXPtGK1EQkEyliOZP4dk7L+H5J17ghL/9ib1WWc6dbJCmKJUnm2vk6Qt/x9VrXsQRI5e1YAvPX30mF02oZ3FHGQuY8cqDXPnai7z/v1fy+x0HLBFSzrznQi766O92Zr/+IJf9YhK3FjfS0Bx2HV87s16ZwIUnzoYrLmK/lRNAgVkTTuMnZz3KnHxEkEiTSrQz6/VHuGHyf/jPW2dz8QmbUmWtU0nqFC7k0X/8uduEubzzxPWc+uq9VLY00Jhf9B9lDm8+fAW/npbjb1cczagiCGfcw/lnX83kbvd2uTnvMvG283jx9QYu+vuRrP0Jn5lJX0vhLO4b/zStEaRG7MhBR5Yz75E3eTE7mTvvepO9j12bRXdbuam38auxf+Hp+sJH93HUT+XZO/7Ki89P4YxLdyNIJEkkIqIwIgoCEkEAiYCgt/uaaAETzz+OU26bSvtHG+1g+kv3cdXLj/PE62dxwfGbUN1t/fzkcZwzuds25r7Fo1efwpSW/+PKEzak7At8eSTpq8S6MF9RyZE/4LCtB5EKIjLTH+fac07m8L12YZd9f8LvLr2bV+uXrtMVtbdTGLgx+/70N5xyyMafuqZTomJt9vn9Fdx8+z+58NjNqEtA2PwCt97zLgUganiAC85/mNk5KF55Z0684Hpu/udl/OHA9ahOhDS/ehXn3PD2MmubSd8oUYH2jmJG7HwEJ/325+y6SpoBOx7ID7fenePP/gc33nEvd93wJw5cp4JElOeDe8bxcEME5Hj1+gu4e0aOKNGPdfY7ncvG3cTV5/2UbYemWXy3DJDjjev/xA1vthL0/zY/vfROHn7sER7417kcMKqMaMGz/P3i+6mPeinjIsnh7HXsbqyUDogyb3Dt6RfydOOyVqpg8wMOYPudj+b3F1/H7ffew78uHMP/1CUgrOfxcfcyvUc3wUFiEFuOvZBxt93E3366OXUJiLIN1LfWsflxf+XGW2/ikuO3ZEACorZXuXPC253XmvoH+Ov/PcacQjGr730m4+5/hMceuYfLT9qWFRJZpt7+F66fbDNJSd8A+bf5x4FbsPnmm3f72YZf3rd0R8qJ6g05/M/XcevNl/HrnYaQDCIKjfU0la/Hoedcyy23XMEpu6xIKojITr2Lu17Mdq638m4ctMfW7PvL87jipru4945rOH2P4RQHEe3v3MLNT3/Wfgelr4f823dz12tZoiDNmttvz6qDt2HH9YsJKDBjwnieX3Q6hjO5/dy/8XR9gaB8LfY85WJuuHkcl566F2tVFFE7qJRcZk2OHfcQl+43lABI9Psu5z7yJE8+ciF7DVz2l7e2Z//Bn26fSjtJBm0xhj9f8y/+dfW5HL3ZQJJkePeWc7j8hR7naZBk8DZj+esNt3LLVb/nByOKCaI8M+65hadavtSXS5L6lCHnV1ViMDuffgUX/+pAdlh3KBWpAKI8zTNe5P5rz2LMob/ktqk9vuSnRnDwOedy/P7fY6dvdTUd/eQ7ZOjuP+O4HUYydNBKbLTfYew8pLP25qxpM8gR0fzMQzzTHEJiMLv/4tfs9a3VGLrSKLY/5nccsX4RQZRj6iOP8l5huTuTvuYSVG/7C/562hHs+Z2tGVmbgJIN+PGZv2LfrdZhlQHV1K26BUccvCWVCYhy05kyswCF95j49GxCAtLrHMLvjtuRUSuvyBqb7c+pv/4+g7tfsQvv8Oij08lHCcoGVdPy7HiuveIqbvz3m6QGDiQVRLROepqX25dX1oDqTcfyu0PWpjSIyE2/gzPO/jcfFpYOOpPD9+f0/z2EHdYfzqDqGoZttD+H7zSEBFCYPoVpPZ5wpEbvx8/22YiVV1iRDX74I7Yb0HkA6bX35fj9NmaVwSuy3l4Hs9OimuLTZ3Zea559mOdaQkj0Z4Xi93hg3FVccfWt/Ke+msFVARQ+4Jmnp+GlRpIWSbLy94/jsM2HM3joKHY95HsMT3ZOH7bbTzh8yxEMGTKSXQ7dnTWTQNjMzBkLOmvmB1VsfcKZHP/9zRi5Yh3VA1Znh6P3Y8N0AGEb06Z8iENd6psrwwvjJzCtAEFqJNtvN5REoj9b7rABJQGEDY9y+6P1REA4+wkeej1DRIrVf3QqJ+y6PqsOXZl1dzmB/7v+ZsZddDzbDvu0DSmzvPzgY8wLIVG1HcefdiCbrz6MYWt8m4P/9zi2rkhAOIfHHnp1iV5yg5JNOfzkfdl41cEMWXN7frzvhqQDiDpmMO1D76AkfX3ZXP2rLFnLOrsdyzq7HUuhZRZvTnqaR+/+F7c9NZ1M/TNcdv0zfPfUTT9aPFG7Lhus+lk7WUkyeKUhi/viS1RRXZWAmXmiXJY8EY31DeQjIDWM4d2bwCbqWHXVaoJJc4ka5tEQQq+d+knfCEmGb7D+Es2po+bJjP/7Zdz+1GRmzG8lWwgXV8xM5OjoiCBcyILGzn4m+q02ggHdQs2i1dZg5STMWvRNM6xnfkMIRLS8fg9Xvb6MYuRaae2IoHQ57bqDEtY65H8Z+/qPOXdiI/VPXMQ1qaXrZGem3sfll97EY6++z9ymDvJhtyA0nyNXoNu5H5AeNJj+i44h0Y+qfgmYE5EcNISBPaeTJ8rnlrzWFGbyxA1X8MRSJUnQ1trK8iqpSlLsJYdz8EV/7erKY5GAovKejU0TDBw86KPaC0FlFf2CxdMXXZqDftVd0yGb67rOh/W8MO5Srrr3Gd6e2UBrvqvLIwAiOrJZr7f6xooaH2f8w/M6H0CvvTWb1+bJZqFik23ZsPRpnmpr5Znx/2bmd37E4Ib5NBSAIM3Kq3Xv4zxBv4H9P2MB2qhvaCUEUiusxipli+/pgopVWW1Qgoeb8zTX19PRbbWgehjDKhctG1BWXU0RkCVHNvvZiiJJcWDI+ZXVwdxZzdQM6U8aSFYMYdRWezJq8zWhq7Pqtnlzael+15lKL/WG5pvnMDfbjxXqSpdbbTcRfNwSAVW1NaQCyBdmMmVaDmq6OmgK65n6fiMRkKjtT431gyXS6W5nY9TIw+eexHkPNkK/Ndh2r81ZpTJJ+OHT3DzhdT5qNZSooqYqgAUhLbNm0RRBXdf9aWH2TD7sXpUmUUv/2gS0hJRvcQo3nfPdzze6Z3IYu5/ya1778W+4d1aObM/W4O0vcPFJf+DW2RFlq3yb3Xdbg5oiWPDSHYx/oX6ZtXyCXjqXCoKP6y6427UmsQoHXnoNx46yh3xJ31BBkpLKaqqrl39z1fs1t9v0pRYJmTX+dH558fNkEnWss9O+bDSkjGRhGo/c8BBT7BlE32ghs++/g6e7OlTPvXwh+2134VJL5d64i7ve2IdjavtTk4QPcjmmTZlJuNWqXd+/QprnL6Cof91HLe0WnYpRxMc/RAjKqKstJ0Ej4YdTeb8NVqnoWrflfabODYEEFbV1S7biCxJLne52ZS7pm8A46isqqn+QPx26PwedeD7XT/gPL781hanvvsoTN4/jsQ8jIMGAEcOX6GC6p9ybVzNmz7344Q/253cPzvucTY0C+m26LRuXJyCczR3nnsPtk6Yya8YbPPKPP3DFi1miIMVKW23NCGtxSksqzGDyG02EJOi/w1hO+9mPOeKIw9hjveol72yTw/mfTQaRICL7wtWcd+vrNORytEx7nEvPv5Vp3VsXJddg662GkQwiWv9zMadd+hBvfNjIwnnv8dS1p/KLSyfR/Cmr3gS1W3LCaT9iRPHSF5Zw3hu8MS+EoIT/OfJ0ThpzJEccvi+bDvqi/410u9YUpnHLGWdyy/PTqF+4gA9euYc/n3Q6d8+w519J3xBRjoVzZjJzZo+fD2bT2LH81ZevwJTX3iQTQWLVPTj5Nz/lx0ccwSHfWcOBSaT8O9x9x6t0LO9+qjCTCeOfo33wFmw7spiAPO/c8AfOv+dl3p81nVf//VdOOOCH7H/8hTz6QR5IUFlVSQKI2t5i0qvzaZw1nTnL7GKoiHW33aJzrISFD3PhH29g4rsf8ME7/+H6P17Eo80hJAaw5baj8ZGwJFmT8ysqovHZx3m5tZXWibdw8cRbeswPSA/ZiZ/sP5pUr73ShSx4/Xnebg2JmM/zz0+hsMOAz5VqB3U7M/ZnT/L22Y8xZ+oEzj1uQre5CSpGHcQvD1zTD5XUU3IlRo3sR+KDRubdewZjF27IkNxUnnv6TVqXWDDN6IN+yi5Pnsa9s+bw6PlH8dhfAiDq1nRw8bJrH/wrDpp0MtdObmDSdadyxHXdZife4srNruP49T5d77xl6x7B6WMmc/QFz9Pc7clIYuDarD0wwRuz2nniL8fx6/+sRvKDF5n46nyiL7hqQFC3M8ef8B/eOesRPnz/Ps4fex/nL55LWWEDNj5vd77wfFWSvmoKU7npxP24qef0xAD2vOAWfj708+4gyfB1RlJ633O0Tfknvz1xOqNrWnnrmWeZ4vMkfcNlJt3BvdMKEKQZcfjlXHnE6kt+zwnf5/qjD+WS17M0PHo7jxzzJ/Y6aQzPHH8Bzy14k9vOGMNtHy0ckJ7dSqosCQQM3WwLhl/xJm9l3+XG43bnxqCCbf73Zs7YfulylP/P0Zy026uceuc0Zj/+N058/G+LZwYlrLrHyRy1SSlg1WtJ8iviV1JAzS6nc83//YKDd92MUSvVUVGcJJEupWbFddjmgF9x8eW/ZdsBH/f2Jei/xQ/YeXg/ygauzz67fhFP95IM/e4fuPzCE9lny5EMqS4lXVxB/1U35Ls//iOXXXAk65bbEEJaSlDFtif9ieO/twErlizg9cce4unpFWz7k/1Yv8dTgUTd1vzq0r/wsz03ZXj/CtKpYqpX2pg9TzqSLXucX0HFevz4wss5a8zubDpiEFWladKl1QxbZzsOOu0sjlz30wWcndKssvepnLzdQBLdd1e8IWPO+TV7bbIq/TLv8tRDT/BW8C2OOfTblHyGvXy8JEN2OZ3L//ZLDthuNCvWVVCULqJi4HA2+f5xnPPr7xpwStIXIsHgPU7lzKN2YNQKSeZMepRHXpjL4N3HsIdNc/RNFjXyxPiHmB9ComoLDtprxNIVORIrs8chO1CXgKjtWcZPmEFqxD6ce8X5jN1zc9ZcoZrSdIrSulXZePex/OWSk9mipvPmKjniQM44/UdsPryO0nSa8toBFJrmL7vlXaKOLU/+O5eechA7rLsSteVFFJXXstK6O3DwqZdw6c83/3xdFknS10gwevToWPYl/sorr/R1ET61BQsW0K9fv74uhiRJkiRJ0jdOU1MTNTU1fV2MT23dddft6yLEgnVhJEmSJEmSJMWaIackSZIkSZKkWDPklCRJkiRJkhRrhpySJEmSJEmSYs2QU5IkSZIkSVKsGXJKkiRJkiRJijVDTkmSJEmSJEmxZsgpSZIkSZIkKdYMOSVJkiRJkiTFmiGnJEmSJEmSpFgz5JQkSZIkSZIUa4ackiRJkiRJkmLNkFOSJEmSJElSrBlySpIkSZIkSYo1Q05JkiRJkiRJsWbIKUmSJEmSJCnWUn1dgG+apqamvi6CJEmSJEmS9LViyPlfVFNT09dFkNOuktUAAB3aSURBVCRJkiRJkr52bK4uSZIkSZIkKdYMOSVJkiRJkiTFmiGnJEmSJEmSpFgz5JQkSZIkSZIUa4ackiRJkiRJkmLNkFOSJEmSJElSrBlySpIkSZIkSYo1Q05JkiRJkiRJsWbIKUmSJEmSJCnWDDklSZIkSZIkxZohpyRJkiRJkqRYM+SUJEmSJEmSFGuGnJIkSZIkSZJizZBTkiRJkiRJUqwZckqSJEmSJEmKNUNOSZIkSZIkSbFmyClJkiRJkiQp1gw5JUmSJEmSJMWaIackSZIkSZKkWDPklCRJkiRJkhRrhpySJEmSJEmSYs2QU5IkSZIkSVKsGXJKkiRJkiRJijVDTkmSJEmSJEmxZsgpSZIkSZIkKdYMOSVJkiRJkiTFmiGnJEmSJEmSpFgz5JQkSZIkSZIUa4ackiRJkiRJkmLNkFOSJEmSJElSrBlySpIkSZIkSYo1Q05JkiRJkiRJsWbIKUmSJEmSJCnWDDklSZIkSZIkxZohpyRJkiRJkqRYM+SUJEmSJEmSFGuGnJIkSZIkSZJizZBTkiRJkiRJUqwZckqSJEmSJEmKNUNOSZIkSZIkSbFmyClJkiRJkiQp1gw5JUmSJEmSJMWaIackSZIkSZKkWDPklCRJkiRJkhRrhpySJEmSJEmSYs2QU5IkSZIkSVKsGXJKkiRJkiRJijVDTkmSJEmSJEmxZsgpSZIkSZIkKdYMOSVJkiRJkiTFmiGnJEmSJEmSpFgz5JQkSZIkSZIUa4ackiRJkiRJkmLNkFOSJEmSJElSrBlySpIkSZIkSYo1Q05JkiRJkiRJsWbIKUmSJEmSJCnWDDklSZIkSZIkxZohpyRJkiRJkqRYM+SUJEmSJEmSFGuGnJIkSZIkSZJizZBTkiRJkiRJUqwZckqSJEmSJEmKNUNOSZIkSZIkSbFmyClJkiRJkiQp1gw5JUmSJEmSJMWaIackSZIkSZKkWDPklCRJkiRJkhRrhpySJEmSJEmSYi0YPXp01NeFkCRJ+mqIyCyYQ2u6P/0rUl/OHvJZckGKVNRBU8NCosqB1JT63Fmf3MwZ9QwdVtvXxZC+VB/MbGDYinV9XQxJUox8OXfvkiRJWqZCRwuNLVkKUUC6tMqAU5IkSfoCGHJKkiR9JKC0ZgVKv8Q9pMprGVj+Je5AkiRJ+gay6oAkSZIkSZKkWDPklCRJkiRJkhRrhpySJEmSJEmSYs2QU5IkSZIkSVKsGXJKkiRJkiRJijVDTkmSJEmSJEmxZsgpSZIkSZIkKdYMOSVJkiRJkiTFmiGnJEmSJEmSpFgz5JQkSZIkSZIUa6m+LoAkSZKkT+eDmQ19XQRJkqSvFENOSZIkKUaGrVjX10WQJEn6yrG5uiRJkiRJkqRYM+SUJEmSJEmSFGuGnJIkSZIkSZJizZBTkiRJkiRJUqwZckqSJEmSJEmKNUNOSZIkSZIkSbFmyClJkiRJkiQp1gw5JUmSJEmSJMWaIackSZIkSZKkWEv1dQEkSZIkfXIzZ9T3dRGk/4phK9b1dREkSTFiyClJkiTFzNBhtX1dBOlL9cHMhr4ugiQpZmyuLkmSJEmSJCnWDDklSZIkSZIkxZohpyRJkiRJkqRYM+SUJEmSJEmSFGuGnJIkSZIkSZJizZBTkiRJkiRJUqwZckqSJEmSJEmKNUNOSZIkSZIkSbFmyClJkiRJkiQp1gw5JUmSJEmSJMWaIackSZIkSZKkWDPklCRJ6iP51nrmzF1IR9TXJZEkSZLiLdXXBZAkSfqmSqSKKC5OkQz6rgz5lnnMa8rRW84alFQzqLbMJ+PqM/nmJuYszEOQpGJAFVVFS86POtqYM6+dAgGldTXUli69jUJbM3MackQEFNdU0b+85yc6x4JZzbSFAUX9KunfL8Xi0zJP4+wmWguQrOjHoOru8zrnL/ywiZY8kCqh/6Ayins5pwvZDlqaO2jPFsiHEUGQIFWUpqSshIqyJInux7ssQRG1Qyoo7cNrhiRJX1WGnJIkSX0kUVxJdfGXtPGoncY5zaT6D6DiY+/4AoLSGgZWFfcIbgq0NtTTUVRkwKk+VSiEnb9EBdpaslTWdv9MRmRaOih0/d65bM9PbIG2lkVBfkRHSwe58lLSy9xbRLa5hcZ0FTWfMEkM2ztoW5RJ5jtobS+leKl1O7dbvzBH2H1qFJJr7yAXJigtK/VckyTpczDklCRJ+qYLAhKJxBIhZ5RrpT1fRHmZt4vqW4XC4nrGYaadtnzR4uA+30FLe7f5haXrJEfZDlqzQBAQEBHlOmjtKO39AUMU0tbYQnFRJWXJ5ZUuJNOSJQSCREAURrS3ZimUFtN91bC9jYamzoAzSKUpryimOBVAGJLtyJJPFy8dugYp+g0op2SJvDTo05rfkiR9lXnXKkmS1E2htZ552TIGVkQ0N7fSns0TkSRVXEp5ZQWlqUUJQ0RmwRzaiuqopJXm1g4KJTUM6FdEAIS5NlqaW8lk84QkSBWVUF5RSVlRtzpomQXMaU3Tv3/F4puyKE97SzMtmQ7yBQjSRZSW96OytEcT2TBLa3MLbe1Z8mFn0/fS8koqytKE3Zugz51FE703O0+WVFId9Wx+G5FtbSMsqabUqmXqUyFh2C24jPK0thYor0oSANnWdnLdZodhSERyic9zR2uWApAoLaMyamNhJiTTmqNfcbr3mpOFHI0LOijqX/zxX5jyWdo6os6m9FVpMo3t5Ds6aMsXU/nRiiFtzVkKEZAoonpAxRLhaUlZb2lrQDKdJG2oKUnSJ2LIKUmS1FO+lYbGBMWV1QyoSRFEeTpam1hY30BYW0t5t9Sh0NZIY1BERVUNRal0Z8CZbaK+oZ1kRT9qq9IkCMllWmhqmE+upj9Vxb1EK1Ge1oZ6WoIyqmr6UZSEQjZDc1M9DWEdteVdYWShncb6RnLpCvrVVpFKdIaqzU0NNNKf2ooBDC7vbK6erOtP5cekJEGqmJKeE8N2WtsTlNYVYb6ivhURdrXvThWlCLN58m3tZPuVU0yO1rYQgiTpdEguGxGGEREs/tyGWdoynU3YS8qKKYtyNGWyhO0dtIdpypZxKiaL0wTZHPn2Nhpb0vSv6L10ubYOshFQXExZeRpa2mnO5WlrLVDRFcQS5mjPdiaxybISSpdbO3SxMB9S6F7GRMKanJIk9cJn85IkST1E+ZCiqhoqS9IkgoAgkaakspaa0pDm5ky3PvUiClERVbVVlBUXkUoGQI7WhW0kKmupqSghnUySTKYpqaihrjJJZmEL2V5G+Qnbm2gOS6mpqaQknSSRSJIuqaCmppyopZn2sHOfHS1NdKSqqK2poDidJJlMki6ppKaujqoeCUoQfPpEJN/WSjZVRplVyNTnFoecybISSlNAIUtre0Qh006mAEFRMRVFXZ/VMFxiEK3OMBNIFlFWDImS4s7ayWGuK/xcWqK4lJrKFAERHU2tnQMKLVOetrYCEFBcWkSKJGVd3TvkMx1kFy1WCLv6DIVUKtGjRnaBjvYc7e158j2vC1GOhXMa+XD24p+G1mWXWZIkGXJKkiQtJUiVUVbUM+ALKCorJZXtoCNaPC1RXEpR9zuqfDvthWLKejYvB5Jl5RSHHXQsMzSJyLZnSZWW0XPXQbqU0lSWjmwEUY72joiS8hJ6VggLkl/ASO1Rlra2PEXlpTb5Ud+LFoecQTJNeVkSiGhvbaelNd85Wnp5MenEopAzWuIhRKYtTwQkS4s6z6sgTWlpAER0tOU+Ch+XFFDUr5zK4gDCHM2N7ctcLspmyeSBIEVpV78OqUX7yWfJdHyCw8u2Uz+/mfr61sWDF0mSpM/Ee1dJkqSekollPwlOJEgQdoYuXQljMtljwJ5CSNhbk9IgSTIRUgiXaFDbpXN6rqWeuW1LrxxFkA4jOvsoTJD+ktqshh1tZKJSqkt8Fq6vgGhRzcyARBCQLiumqLmNbHuGFoBkMeWlAUFL1/kQRYtrchayZLqeSBRampjV0mPb2Q4y+eLFgxgtIUlFdSntc9vItmdpX8YS2bbOvj6JcjTObqBxibkhmbYcVcVpgkSCJJAH8vmQiMQn6wYiSFMzpJIyK1RLkvSJGHJKkiT1EBUKnQOV9JxRKFAgQeJj8r8gmSAR5joHGekZTkQFCmGCVGJZqUWCZCIgXVFH/2WnLl3bSJBIhJ0jTqe+6PSjQHtbO4myuqVqk0p9IlpUMzMgCIBUEWXFGbJdI6onS4spDiBcRk3OQqZ7retlbTtPJhNSUbnsEzpIl1BV2cG8pmXU44xyZHpp7r5I2J6lI0pTkkxRnIaOLBTa2slUVnyCUdslSdKnZcgpSZLUUz5DW0d5jwGCQjraMhSKKj4+AEyVUJJspS2Tp6R8ySbrhbZWOhLFlC/zDiygqKSYQksb2fJ+PfYREUVdIU+QpqQYGtvaqSguXaLJelTIEyYWNVkPIOisAfqpjjubpqwq7YBD+moIF9fM7OxeNkFpeZqm9ixhkKSs6xz7qOvZKOr8zAchmUxn+++gtJxBtd0G0Yoi2hoaWdgO2UyWfGVJr1+KiirLKW9rorVHU/IomyVToHNU9QH9qEx3m9nRxtz5HRQKWTId5ZSUJCmrKKKlIUsYZmmc10y+soTidAC5jwtKIwq5Arme3Vckk6SsaC1J0lIMOSVJknpKJsgtbGBhRT/KixePrt6USVJRV7pUX5hLSlNeVUZ7QwMLon5UlqZJEpLNtNDUElJa03tImiitpDJTz4L6iMrKcorTCQhzdLQ20xKW07+mlAQBxRVVFNc30tAY0q+8hPRHo7C3QkV/asuSECRJJQtkMh2UJdNE+QJBUfpjyh6RbWujUFz5qUZ/lr5MURTR2btD8FGQmSgppbo6RT5IUdYVLi4eYKtr+TBLpmvkn6KSIpLdB+AKAkqKUyxsz0MuSyZfQmVv34qCFJX9isg0ZOkeR2bbcp1/J9KUFAVL1vouLqI42UFbIaI9kyMqSZMsK6cmW6ChpUCUz9G8IEfzcg8+T9PchTT1mFxcU0P/ch9DSJLUkyGnJP1/e/e13DayqFH4bzQymEQ6THyE/f4PtGfPsa3IgBz6XJBWMuUgyyNDs747FQmyCdlVrKUOAHCP8VOdTKXddq3zTadBVkEYa76aKPmKE8e9cKbVytduu9XFrtMgT34YK1uulIWfm4LlKz15JZtvtduca9MNkucriFMt5slNSLGx5qsTFbtcm4ut9k8LFU+Wml6vg/WVzadqr670IXfygkTzk7nsQwFzqJWXUryIOZkSPw93fyanJGOVTO79Q95PXJaTkxukvmrUOEnGVxR9+n/WjwP5m06d61SVg6bTh4dg00STXaPNx+PSXauy2idPLw4U3r/A+IpCo6J0N0vWjVG8mOlNVGmbN6qbw968xsj6VkEYKuKPCwAAfBfzn//851sWMQEAALxofX6u0zrRm2X6w2OfKy/0Po/0+lX2hdmhwI2//nuu3/9YPvcwgB/qf39d6I8/V889DADAiPCHegAAgH/S0Kppew1Dq6JsZQKfL2QAAADAd2K5OgAAwD/IdbW2Vzs1vWTDTItpxCE/AAAAwHcicgIAANxis5V+yX7c65twotWbyY97AwAAAOBfiNVRAAAAAAAAAEaNyAkAAAAAAABg1IicAAAAAAAAAEaNyAkAAAAAAABg1IicAAAAAAAAAEaNyAkAAAAAAABg1IicAAAAAAAAAEaNyAkAAAAAAABg1IicAAAAAAAAAEaNyAkAAAAAAABg1PznHgAAAACAb/O/vy6eewgAAAA/FSInAAAAMCJ//Ll67iEAAAD8dFiuDgAAAAAAAGDUiJwAAAAAAAAARo3ICQAAAAAAAGDUiJwAAAAAAAAARo3ICQAAAAAAAGDUiJwAAAAAAAAARo3ICQAAAAAAAGDUiJwAAAAAAAAARo3ICQAAAAAAAGDUiJwAAAAAAAAARo3ICQAAAAAAAGDUiJwAAAAAAAAARs2cLH5zzz0IAAAAAAAAAHgsZnICAAAAAAAAGDUiJwAAAAAAAIBRI3ICAAAAAAAAGDUiJwAAAAAAAIBRI3ICAAAAAAAAGDUiJwAAAAAAAIBRI3ICAAAAAAAAGDX/uQcAAADwEniTmX49CaSm0Pv3pbrnHhAAAADwL0LkBAAAL5yRH4dK00hxaOX7njw5DcOgru1UlbWKolU3PPc4n0d0cqLXk69b3OPqXO8+VOp/8JgAAACAb0XkBAAAL5bxQ82XmbLIk7n7iDxrFVqrMI40nbXKr3Kti17uyOvYJFYWGrmm0bZ8qYnPyR378Lef8YXHfxjPVzoJ5GtQtavV/EuDNAAAAB5G5AQAAC+SCRO9ep0q8iS5XuWuUl40arpBgztEzjhUNo2V+IEmq7kCf6OzTfdJ6PTjRLOJpyHvXmzkdFWu/zut9VP2Q+Mrm6WK1GkoiJwAAAD4FJETAAC8PDbUyat94HRtpYuzXOWdTTKdhq5TtetU5ZWSk5mWmVU0n+qkW+uioKIBAAAAY0LkBAAAL4xRNEuVWkl9o8tPAuc9blB5udGlN9cy8ZTOE+VlrtpJyWqpVXqz0N3LZvoj+3hdp6t3a+2OvbbnKc4SZWmg0PfkGWnoOtVlpe22UftgQzUK0liTLFQUWFlPcsOgtm6Ub0sVzafrxT+Osbm61GlplU1jpbEvX7XO3hU6cskT+vbxemGoLIsUR74Ca2TM4ZqmUbGtlNe3bk6Q6O3bVMH1r8DX4teVFoefhnyjvy/aj6+syZsTLSKpvrrU6fb4TQ7mc72d+XLlTn+f1Tezdj++l6t19neuPkk0nYSKAk/t1aXO8pvPYvxA6WR/nwPfk9Ggvu1UFZV2u1bdkXtuglCTSaQk9uVbT0ZOru/Vtp3qslZedOqfazsAAACAF4DICQAAXhYvUJZaSU71NlfxNcecu0HFutIkThX6kbKkUF3sZ3vWtZHnWwXWSH2vpnOHMNZpOBazvEDzN4mSQ5lzzknGyAaB0iBQklQ6P81V3V/17vmavppqHnmHIQ3qe8mzVlGaKEojpeutzo8sp5ckBYlW01ixPfzcmWPPejqPGG8wm+v13NfhCrnBaRj2WwdESaIoiRRfbnS+O9wcN6hpOg3GKAitPDl1TX+IgU7uWE38bkbxyVxZZg/7uDq1tx7104lWy2gfXp1T3/cajCcbhpqEobKs1sXZ7k5Y95JMr1fx3Wtk5Flfke8rSgKZbq11TeUEAAB4LCInAAB4WYLgsA9np7L8hmXnba2iSRVGRlFkpaJTvd7oVB9PIDcaqlwfLtrPv44fKHG9ynWhTd6o7SUZT2GW6mQRKQhincwbvbtob8VKT+lyHwxdW+vqsriZ0Xjr2ng+1bJb6/zIcvowi/d7j64LbctOXe+ORtin8bjxtlWrNh1UbysV5a0T7a2vbDHRIrVK5qnScquil9TVuvxQSzbW618zReq1O39g9uyTfbRQk0zq60qbTaWqHTQcbqSJ0kPgHFRtcl1tm+vPYIJQ00WmWRxp+WrQ6fvDLFrja7qIFRinNt/p/OrmGhmjII6UBr22BE4AAIDv4j33AAAAAJ6S8b39F5yh3wfGrzaoO9Qnz1o9fh6kU73e6nzT3Ly/G9Tsdjpf72c12iRSdOsNTJxonnhSX+vidHd3yfbh2tOLRr08JfNY4dHB9crP1zrfNGpuhbkf4dHjbQqdvttqk98KnJLUd8ovcuWdJC9QEv3gWahfMNS5Tk9z5VWvvv946rynbL6Plc16o7N1c+czuLbR5myrTeNkgliz9PA121gFVvsAvb17jZxTW1Zab9qf88AnAACAEWEmJwAAwFMaGu3y43W1qxq1zldorHwr6TAjMUxCWUldUemhw9uHslTRhZr6oZKgUNPcfdw1lbbl48OmiSf67c/Jg4+7Ote7D5X6Jxrvp2/Qqemc5BtZ35P0XKfYDyq39af7avqhktBIrtFu98DYXKfdrtV0GSpKAnl5rcEN+7BpfWXzRO2mVtUMx7ccAAAAwKMROQEAwIviukGDJOtZBZ5Uf3Ur8+T7+9l3Q//4COX6/u5svdv6QbdWKt+8b7B/X3861x/Trxmn0f0ThYam13et4nafX97urh/7nvEa+Ul8ONDHylpzdMasec6JnK5Xc+y0Jt/KN5IUavn7SssvvY7vyRppcK22V7WiZaQgSbVKUrlhUNd2appOTd2orPofuLUAAADAvwOREwAAvCxtq3qIlXq+ktTT7oFTtj/hh0pDSXKq6+/IhU6PDqR9Xatovjzetv30HZz7vkrm6lzvTutvWjb9reP1J1O9OQnkyamtGhWl03A9bqMgiRX/8G+nXy6on72Vrle5a74clPub09L7YqcPTa0kC5WEvoLQKohCBVGobJpq0X56WBEAAAC+DZETAAC8LEOrvOiVTqyiaaa0OBxi81me0kWy3zuyq5VX/+S0ukFdO0iRJ9M32l41P/n+jI8crwk0ne0DZ3lxpfP8/lVGqR8p9h87jdMdQq+R5z30GuZ6tu4363p1TrJGaotCmy8tv78/uq5VsW5VfByJ3YfO6TxREkQ6WTSqz3723z0AAMDPi4OHAADAC+NUb4p92LShTl5nSj73Z13jKTmZ6STxJA0q1qXqe6Xp4yxJY44vr/5eTdmol+QlqWbxw4HOPjoAPq1HjdfzZA+n3tf3b7AkmcOy9qPc9ezYB/ulnLrDRpp+HB7/S74fKntwvF/QNSobJ8lqMo/14FCt95kx3hpt36spSl1u94dReb4v+3P8egEAAEaJyAkAAF6evtHleaF6kEwQa/V2odU8Uhx61/s9GmsVZen+sYmVkVOz2eqy+DTA9d1+j04TRTfB1DscHvQEXFVqXQ6SsZq8mms5DXR7wqEXhJqs5nr7dqpJ8DTv+T0eNd7hcACP8RUn926c8RTPJ5o+9Nmur7VKMv86NNvAuxOd66JWJ8mEiZaL4E40NEGkxatM8aO//Q7Kryq1TvLiTK9fp0qjW+9vPIVZqtdvF3q9CG6+ZBtfszcLrRbx/t/f7Ze0gSbp/vMMXX+9vB0AAADfjuXqAADgRXJ1qbMPg+bLVJPQKplNlMweePLQaXe10zrvj+6n2ZeVilmgzIZa/rLUrHfyrCdXbvXuvHmCk7IHFRdbecuJ5olVupgpXTgNg5OMkXcos64fDqfyPHcNe8R4XavtulGyDBUv5volblS1+1AaxIEiu5+JeXQ2p2uV7zplc1/BdK7f0l69PFmv1+b9Wtv28Ly61OUm0GrmK5zO9OtkUNcNcsbK942M61VVUhQ/rk67ptDZudFqGSuMEi3fJHLOaRgk7/oQJadWNzN+TRgpDa38KFMyzSTn1PeDZLyba/pW6/W37YcKAACAu4icAADgxXJtrav3jXZxpCwNFUVWvvXkGaeh359wXZe18qJ9+ER0SeobXX3Yql8kSiMra6W+a1XXg54sOQ6ddmdrVUmkSRYqCn351tvPYmxb1WWt3a5R+7OUsEeMt8+3+tDHmk0jxWGoSWzkhl5tXevqolSXzvVqcnzNdrvZ6HRINZ+ECn1P3jCoqVp1d26+U73e6ENzOME9tLK+lRsGNUWjfFuqCqb69ZGRU5L6MteHd7XSSaw09hUGVtZzGvpeTd2oyCvl1c2HdnWu9+9bZVmoOPIV+J4830puUN92aspau12t5ov7xgIAAOBzzMnit+eeCgAAAAAAAAAAj8aenAAAAAAAAABGjcgJAAAAAAAAYNSInAAAAAAAAABGjcgJAAAAAAAAYNSInAAAAAAAAABGjcgJAAAAAAAAYNSInAAAAAAAAABGjcgJAAAAAAAAYNSInAAAAAAAAABGjcgJAAAAAAAAYNSInAAAAAAAAABGjcgJAAAAAAAAYNSInAAAAAAAAABGjcgJAAAAAAAAYNSInAAAAAAAAABGjcgJAAAAAAAAYNSInAAAAAAAAABGjcgJAAAAAAAAYNSInAAAAAAAAABGjcgJAAAAAAAAYNSInAAAAAAAAABGjcgJAAAAAAAAYNSInAAAAAAAAABGjcgJAAAAAAAAYNSInAAAAAAAAABGjcgJAAAAAAAAYNSInAAAAAAAAABGjcgJAAAAAAAAYNSInAAAAAAAAABGjcgJAAAAAAAAYNSInAAAAAAAAABGjcgJAAAAAAAAYNSInAAAAAAAAABGzf/9j+VzjwEAAAAAAAAAHs2cLH5zzz0IAAAAAAAAAHgslqsDAAAAAAAAGDUiJwAAAAAAAIBRI3ICAAAAAAAAGLX/Bwgv2gnaQdoGAAAAAElFTkSuQmCC;" vertex="1" parent="1">
          <mxGeometry x="-740" y="50" width="1337" height="548" as="geometry" />
        </mxCell>
        <mxCell id="jr2tf26-BkU2WO63kZF1-2" value="" style="ellipse;whiteSpace=wrap;html=1;strokeColor=#82b366;fillColor=none;" vertex="1" parent="1">
          <mxGeometry x="280" y="220" width="220" height="100" as="geometry" />
        </mxCell>
        <mxCell id="jr2tf26-BkU2WO63kZF1-3" value="" style="endArrow=classic;html=1;exitX=1;exitY=0.5;exitDx=0;exitDy=0;fillColor=#d5e8d4;strokeColor=#82b366;" edge="1" parent="1" source="jr2tf26-BkU2WO63kZF1-2">
          <mxGeometry width="50" height="50" relative="1" as="geometry">
            <mxPoint x="620" y="270" as="sourcePoint" />
            <mxPoint x="770" y="370" as="targetPoint" />
          </mxGeometry>
        </mxCell>
      </root>
    </mxGraphModel>
  </diagram>
</mxfile>
